<svg xmlns="http://www.w3.org/2000/svg" viewBox="0 0 400 400" role="img" aria-label="Wise Owl">
  <rect width="400" height="400" fill="#f5f0e8"/>
  <ellipse cx="200" cy="350" rx="50" ry="8" fill="#000" opacity="0.1"/>
  <ellipse cx="200" cy="230" rx="70" ry="85" fill="#92400e"/>
  <ellipse cx="200" cy="220" rx="55" ry="65" fill="#d97706"/>
  <circle cx="175" cy="210" r="28" fill="#fef3c7"/>
  <circle cx="225" cy="210" r="28" fill="#fef3c7"/>
  <circle cx="175" cy="212" r="14" fill="#451a03"/>
  <circle cx="225" cy="212" r="14" fill="#451a03"/>
  <circle cx="180" cy="207" r="5" fill="#fff"/>
  <circle cx="230" cy="207" r="5" fill="#fff"/>
  <path d="M200 235 L200 255 L190 248 L210 248 Z" fill="#f59e0b"/>
  <path d="M130 200 L90 170 L110 220 Z" fill="#b45309"/>
  <path d="M270 200 L310 170 L290 220 Z" fill="#b45309"/>
  <path d="M200 120 L185 155 L215 155 Z" fill="#92400e"/>
  <text x="200" y="382" text-anchor="middle" fill="#92400e" font-family="sans-serif" font-size="14" font-weight="600">Wise Owl</text>
</svg>
