<svg xmlns="http://www.w3.org/2000/svg" viewBox="0 0 400 400" role="img" aria-label="Forest Spirit">
  <rect width="400" height="400" fill="#050a06"/>
  <defs>
    <radialGradient id="spirit-glow" cx="50%" cy="45%" r="55%">
      <stop offset="0%" stop-color="#4ade80" stop-opacity="0.35"/>
      <stop offset="100%" stop-color="#050a06" stop-opacity="0"/>
    </radialGradient>
  </defs>
  <ellipse cx="200" cy="190" rx="110" ry="130" fill="url(#spirit-glow)"/>
  <path d="M200 320 L200 200" stroke="#2a4a28" stroke-width="20" stroke-linecap="round"/>
  <path d="M200 240 L140 180 M200 220 L260 170 M200 260 L120 230 M200 250 L280 220" stroke="#3a5a38" stroke-width="10" stroke-linecap="round"/>
  <ellipse cx="200" cy="130" rx="35" ry="40" fill="#86efac" opacity="0.75"/>
  <path d="M200 90 C175 90 165 110 170 130 C160 125 155 140 165 150 C155 155 160 170 175 165 C170 180 185 195 200 190 C215 195 230 180 225 165 C240 170 245 155 235 150 C245 140 240 125 230 130 C235 110 225 90 200 90 Z" fill="#bbf7d0" opacity="0.85"/>
  <circle cx="188" cy="125" r="4" fill="#14532d"/>
  <circle cx="212" cy="125" r="4" fill="#14532d"/>
  <ellipse cx="200" cy="350" rx="60" ry="10" fill="#000" opacity="0.35"/>
  <text x="200" y="382" text-anchor="middle" fill="#4ade80" font-family="serif" font-size="14">Forest Spirit</text>
</svg>
