<svg xmlns="http://www.w3.org/2000/svg" viewBox="0 0 400 400" role="img" aria-label="Cursed Doll">
  <rect width="400" height="400" fill="#0a0808"/>
  <ellipse cx="200" cy="330" rx="55" ry="10" fill="#000" opacity="0.45"/>
  <rect x="155" y="250" width="90" height="70" rx="8" fill="#2a1818" stroke="#4a2828" stroke-width="2"/>
  <rect x="170" y="210" width="60" height="45" rx="6" fill="#e8dcc8"/>
  <path d="M170 210 Q200 175 230 210" fill="#d4c4b0"/>
  <circle cx="185" cy="228" r="7" fill="#111"/>
  <circle cx="215" cy="228" r="7" fill="#111"/>
  <circle cx="187" cy="226" r="2" fill="#8b0000"/>
  <circle cx="217" cy="226" r="2" fill="#8b0000"/>
  <path d="M192 245 Q200 252 208 245" stroke="#8b4513" stroke-width="2" fill="none"/>
  <path d="M165 218 L175 235 M235 218 L225 235" stroke="#333" stroke-width="2"/>
  <path d="M175 255 L190 290 M225 255 L210 290" stroke="#e8dcc8" stroke-width="8" stroke-linecap="round"/>
  <path d="M155 265 L130 300 M245 265 L270 300" stroke="#e8dcc8" stroke-width="7" stroke-linecap="round"/>
  <path d="M178 320 L188 350 M222 320 L212 350" stroke="#e8dcc8" stroke-width="7" stroke-linecap="round"/>
  <path d="M140 200 L160 215" stroke="#666" stroke-width="3"/>
  <text x="200" y="382" text-anchor="middle" fill="#6a5040" font-family="serif" font-size="14">Cursed Doll</text>
</svg>
