<svg xmlns="http://www.w3.org/2000/svg" viewBox="0 0 400 400" role="img" aria-label="Diary Page">
  <rect width="400" height="400" fill="#0c0a08"/>
  <rect x="70" y="60" width="260" height="300" rx="6" fill="#d4c4a8" transform="rotate(-4 200 210)"/>
  <rect x="78" y="68" width="244" height="284" rx="4" fill="#e8dcc8" transform="rotate(-4 200 210)"/>
  <g transform="rotate(-4 200 210)" fill="none" stroke="#8b7355" stroke-width="1.2" opacity="0.5">
    <line x1="95" y1="110" x2="305" y2="110"/><line x1="95" y1="135" x2="305" y2="135"/>
    <line x1="95" y1="160" x2="280" y2="160"/><line x1="95" y1="185" x2="305" y2="185"/>
    <line x1="95" y1="210" x2="260" y2="210"/><line x1="95" y1="235" x2="305" y2="235"/>
  </g>
  <text x="200" y="155" transform="rotate(-4 200 210)" text-anchor="middle" fill="#4a3020" font-family="Georgia,serif" font-size="13" font-style="italic">They said they'd come back...</text>
  <text x="200" y="185" transform="rotate(-4 200 210)" text-anchor="middle" fill="#6a4030" font-family="Georgia,serif" font-size="11"> don&apos;t trust the swing</text>
  <path d="M290 80 L310 100 L290 120" fill="#8b0000" opacity="0.6" transform="rotate(-4 200 210)"/>
  <text x="200" y="382" text-anchor="middle" fill="#6a5a4a" font-family="serif" font-size="14">Diary Page</text>
</svg>
