<svg xmlns="http://www.w3.org/2000/svg" viewBox="0 0 400 400" role="img" aria-label="Skeleton Knight">
  <rect width="400" height="400" fill="#070709"/>
  <ellipse cx="200" cy="355" rx="95" ry="14" fill="#000" opacity="0.5"/>
  <path d="M130 280 L270 280 L255 340 L145 340 Z" fill="#3a3a42" stroke="#5a5a62" stroke-width="2"/>
  <rect x="155" y="180" width="90" height="100" rx="8" fill="#4a4a52" stroke="#6a6a72"/>
  <ellipse cx="200" cy="145" rx="38" ry="42" fill="#d4d4d8"/>
  <circle cx="185" cy="138" r="8" fill="#111"/>
  <circle cx="215" cy="138" r="8" fill="#111"/>
  <path d="M192 158 L208 168 L192 178 Z" fill="#111"/>
  <path d="M200 95 L200 115" stroke="#d4d4d8" stroke-width="4"/>
  <path d="M120 200 L155 210 M280 200 L245 210" stroke="#d4d4d8" stroke-width="6" stroke-linecap="round"/>
  <path d="M200 180 L200 120" stroke="#6a6a72" stroke-width="14"/>
  <path d="M200 120 L280 80 L275 95 L200 130 L125 95 L120 80 Z" fill="#5a5a62" stroke="#888"/>
  <text x="200" y="384" text-anchor="middle" fill="#9ca3af" font-family="serif" font-size="14">Skeleton Knight</text>
</svg>
